HIERARCHY
ROOT hip
{
  OFFSET -30.1546 83.6712 -21.5431
  CHANNELS 6 Xposition Yposition Zposition Zrotation Xrotation Yrotation
  JOINT abdomen
  {
    OFFSET 0 20.6881 -0.73152
    CHANNELS 3 Zrotation Xrotation Yrotation
    JOINT chest
    {
      OFFSET 0 11.7043 -0.48768
      CHANNELS 3 Zrotation Xrotation Yrotation
      JOINT neck
      {
        OFFSET 0 22.1894 -2.19456
        CHANNELS 3 Zrotation Xrotation Yrotation
        JOINT head
        {
          OFFSET -0.24384 7.07133 1.2192
          CHANNELS 3 Zrotation Xrotation Yrotation
          JOINT leftEye
          {
            OFFSET 4.14528 8.04674 8.04672
            CHANNELS 3 Zrotation Xrotation Yrotation
            End Site
            {
              OFFSET 1 0 0
            }
          }
          JOINT rightEye
          {
            OFFSET -3.6576 8.04674 8.04672
            CHANNELS 3 Zrotation Xrotation Yrotation
            End Site
            {
              OFFSET 1 0 0
            }
          }
        }
      }
      JOINT rCollar
      {
        OFFSET -2.68224 19.2634 -4.8768
        CHANNELS 3 Zrotation Xrotation Yrotation
        JOINT rShldr
        {
          OFFSET -8.77824 -1.95073 1.46304
          CHANNELS 3 Zrotation Xrotation Yrotation
          JOINT rForeArm
          {
            OFFSET -28.1742 -1.7115 0.48768
            CHANNELS 3 Zrotation Xrotation Yrotation
            JOINT rHand
            {
              OFFSET -22.5879 0.773209 7.07136
              CHANNELS 3 Zrotation Xrotation Yrotation
              JOINT rThumb1
              {
                OFFSET -1.2192 -0.487915 3.41376
                CHANNELS 3 Zrotation Xrotation Yrotation
                JOINT rThumb2
                {
                  OFFSET -3.37035 -0.52449 3.41376
                  CHANNELS 3 Zrotation Xrotation Yrotation
                  End Site
                  {
                    OFFSET -1.78271 -1.18214 1.43049
                  }
                }
              }
              JOINT rIndex1
              {
                OFFSET -7.75947 0.938293 5.60832
                CHANNELS 3 Zrotation Xrotation Yrotation
                JOINT rIndex2
                {
                  OFFSET -2.54057 -0.884171 1.56538
                  CHANNELS 3 Zrotation Xrotation Yrotation
                  End Site
                  {
                    OFFSET -1.62519 -0.234802 1.16502
                  }
                }
              }
              JOINT rMid1
              {
                OFFSET -8.24714 1.18213 3.41376
                CHANNELS 3 Zrotation Xrotation Yrotation
                JOINT rMid2
                {
                  OFFSET -3.10165 -0.590103 1.0647
                  CHANNELS 3 Zrotation Xrotation Yrotation
                  End Site
                  {
                    OFFSET -2.48547 -0.328903 0.83742
                  }
                }
              }
              JOINT rRing1
              {
                OFFSET -8.82822 0.546677 1.51678
                CHANNELS 3 Zrotation Xrotation Yrotation
                JOINT rRing2
                {
                  OFFSET -2.60934 -0.819778 -0.0198488
                  CHANNELS 3 Zrotation Xrotation Yrotation
                  End Site
                  {
                    OFFSET -2.33842 -0.294052 0.168128
                  }
                }
              }
              JOINT rPinky1
              {
                OFFSET -8.27202 -0.0477905 -0.4584
                CHANNELS 3 Zrotation Xrotation Yrotation
                JOINT rPinky2
                {
                  OFFSET -1.82734 -0.647385 -0.700984
                  CHANNELS 3 Zrotation Xrotation Yrotation
                  End Site
                  {
                    OFFSET -1.69225 -0.51767 -0.607171
                  }
                }
              }
            }
          }
        }
      }
      JOINT lCollar
      {
        OFFSET 2.68224 19.2634 -4.8768
        CHANNELS 3 Zrotation Xrotation Yrotation
        JOINT lShldr
        {
          OFFSET 8.77824 -1.95073 1.46304
          CHANNELS 3 Zrotation Xrotation Yrotation
          JOINT lForeArm
          {
            OFFSET 28.1742 -1.7115 0.48768
            CHANNELS 3 Zrotation Xrotation Yrotation
            JOINT lHand
            {
              OFFSET 22.5879 0.773209 7.07136
              CHANNELS 3 Zrotation Xrotation Yrotation
              JOINT lThumb1
              {
                OFFSET 1.2192 -0.487915 3.41376
                CHANNELS 3 Zrotation Xrotation Yrotation
                JOINT lThumb2
                {
                  OFFSET 3.37035 -0.52449 3.41376
                  CHANNELS 3 Zrotation Xrotation Yrotation
                  End Site
                  {
                    OFFSET 1.78271 -1.18214 1.43049
                  }
                }
              }
              JOINT lIndex1
              {
                OFFSET 7.75947 0.938293 5.60832
                CHANNELS 3 Zrotation Xrotation Yrotation
                JOINT lIndex2
                {
                  OFFSET 2.54057 -0.884171 1.56538
                  CHANNELS 3 Zrotation Xrotation Yrotation
                  End Site
                  {
                    OFFSET 1.62519 -0.234802 1.16502
                  }
                }
              }
              JOINT lMid1
              {
                OFFSET 8.24714 1.18213 3.41376
                CHANNELS 3 Zrotation Xrotation Yrotation
                JOINT lMid2
                {
                  OFFSET 3.10165 -0.590103 1.0647
                  CHANNELS 3 Zrotation Xrotation Yrotation
                  End Site
                  {
                    OFFSET 2.48547 -0.328903 0.83742
                  }
                }
              }
              JOINT lRing1
              {
                OFFSET 8.82822 0.546677 1.51678
                CHANNELS 3 Zrotation Xrotation Yrotation
                JOINT lRing2
                {
                  OFFSET 2.60934 -0.819778 -0.0198488
                  CHANNELS 3 Zrotation Xrotation Yrotation
                  End Site
                  {
                    OFFSET 2.33842 -0.294052 0.168128
                  }
                }
              }
              JOINT lPinky1
              {
                OFFSET 8.27202 -0.0477905 -0.4584
                CHANNELS 3 Zrotation Xrotation Yrotation
                JOINT lPinky2
                {
                  OFFSET 1.82734 -0.647385 -0.700984
                  CHANNELS 3 Zrotation Xrotation Yrotation
                  End Site
                  {
                    OFFSET 1.69225 -0.51767 -0.607171
                  }
                }
              }
            }
          }
        }
      }
    }
  }
  JOINT rButtock
  {
    OFFSET -8.77824 4.35084 1.2192
    CHANNELS 3 Zrotation Xrotation Yrotation
    JOINT rThigh
    {
      OFFSET 0 -1.70687 -2.19456
      CHANNELS 3 Zrotation Xrotation Yrotation
      JOINT rShin
      {
        OFFSET 0 -36.8199 0.73152
        CHANNELS 3 Zrotation Xrotation Yrotation
        JOINT rFoot
        {
          OFFSET 0.73152 -45.1104 -5.12064
          CHANNELS 3 Zrotation Xrotation Yrotation
          End Site
          {
            OFFSET -1.1221 -3.69964 12.103
          }
        }
      }
    }
  }
  JOINT lButtock
  {
    OFFSET 8.77824 4.35084 1.2192
    CHANNELS 3 Zrotation Xrotation Yrotation
    JOINT lThigh
    {
      OFFSET 0 -1.70687 -2.19456
      CHANNELS 3 Zrotation Xrotation Yrotation
      JOINT lShin
      {
        OFFSET 0 -36.8199 0.73152
        CHANNELS 3 Zrotation Xrotation Yrotation
        JOINT lFoot
        {
          OFFSET -0.73152 -45.1104 -5.12064
          CHANNELS 3 Zrotation Xrotation Yrotation
          End Site
          {
            OFFSET 1.1221 -3.69964 12.103
          }
        }
      }
    }
  }
}
MOTION
Frames:	4
Frame Time:	0.00833333
-35.0672 81.2533 13.4761 13.9413 -1.01502 -50.9369 -12.9695 4.29271 -17.1951 5.04401 4.05226 -5.15436 1.73339 7.55196 17.8872 -23.6931 2.15905 35.9001 -0 0 0 -0 0 0 -1.01236e-013 7.14718e-014 4.91752e-013 69.1486 9.19057 32.1852 -28.4027 -36.9488 78.6112 -1.69447 -34.2571 -5.49284 -1.10604e-009 -3.15478e-009 -5.18998e-010 -1.88653e-009 -5.31411e-009 -9.33358e-010 -1.10602e-009 -3.15476e-009 -5.19025e-010 7.73091 5.47488 0.417314 -1.10604e-009 -3.15478e-009 -5.19005e-010 2.90554 0.965183 0.102902 -1.10603e-009 -3.15478e-009 -5.19001e-010 10.2786 0.731801 0.0259123 -1.10604e-009 -3.15478e-009 -5.18997e-010 2.22167 -0.733487 -0.20892 -1.01324e-013 7.14506e-014 4.91447e-013 0.162219 11.6288 -121.518 13.1624 -6.29819 -23.8834 0.0460684 6.08843 -0.858972 -1.31433e-009 7.05895e-010 -4.49474e-012 -2.2768e-009 1.21844e-009 7.14373e-012 -1.31435e-009 7.059e-010 -4.50359e-012 -7.73091 5.47488 -0.417314 -1.31433e-009 7.05878e-010 -4.4921e-012 -2.90554 0.965183 -0.102902 -1.31434e-009 7.0588e-010 -4.4931e-012 -10.2786 0.731801 -0.0259123 -1.31434e-009 7.059e-010 -4.50273e-012 -2.22167 -0.733487 0.20892 -2.03217e-016 0 -3.88251e-019 10.8873 -34.2417 16.0898 -0.16534 27.7083 0.55375 1.88798 -2.26359 14.192 2.03217e-016 0 3.88251e-019 28.6041 -10.55 15.9431 0.078709 32.7974 -1.02187 2.10672 -3.11523 20.0923 
-35.0263 81.2861 13.6809 13.8533 -0.848316 -50.5891 -13.1838 4.16361 -17.5068 5.00208 3.95079 -5.23452 1.65532 7.60951 18.0499 -23.5912 1.73043 36.1167 -0 0 0 -0 0 0 1.46956e-013 -1.99169e-013 1.36913e-013 68.5669 8.43801 32.8374 -28.3828 -37.3253 79.2493 -1.55841 -33.0574 -5.24809 1.19381e-009 2.01118e-009 -8.91732e-011 2.07082e-009 3.47859e-009 -1.24704e-010 1.19383e-009 2.0112e-009 -8.92018e-011 7.73091 5.47488 0.417314 1.19381e-009 2.01118e-009 -8.91796e-011 2.90554 0.965183 0.102902 1.19381e-009 2.01119e-009 -8.91756e-011 10.2786 0.731801 0.0259123 1.19381e-009 2.01119e-009 -8.91732e-011 2.22167 -0.733487 -0.20892 1.46858e-013 -1.99196e-013 1.36615e-013 -0.292125 10.7713 -121.907 13.2754 -6.38434 -24.1073 0.0481992 6.2532 -0.88237 -3.93164e-009 8.83526e-009 5.98749e-010 -6.79619e-009 1.52244e-008 1.06661e-009 -3.93166e-009 8.83526e-009 5.98743e-010 -7.73091 5.47488 -0.417314 -3.93164e-009 8.83524e-009 5.98752e-010 -2.90554 0.965183 -0.102902 -3.93165e-009 8.83524e-009 5.9875e-010 -10.2786 0.731801 -0.0259123 -3.93164e-009 8.83526e-009 5.98739e-010 -2.22167 -0.733487 0.20892 -2.03217e-016 0 -3.88251e-019 10.9697 -34.2601 16.2577 -0.166354 27.836 0.557042 1.92679 -2.27032 14.4182 2.03217e-016 0 3.88251e-019 28.458 -10.2452 15.8342 0.0769085 32.7046 -1.02231 2.09466 -3.06773 20.1405 
-34.9957 81.2953 13.8805 13.769 -0.719716 -50.2565 -13.3508 4.09255 -17.7845 4.93931 3.84097 -5.30513 1.54866 7.58693 18.2106 -23.3582 1.34829 36.3386 -0 0 0 -0 0 0 1.6259e-013 -2.70282e-013 -5.48102e-014 67.974 7.65877 33.5025 -28.3568 -37.7034 79.8972 -1.43059 -31.8517 -5.00943 1.909e-009 3.64059e-009 2.07987e-010 3.29486e-009 6.24481e-009 4.09955e-010 1.90902e-009 3.64061e-009 2.07962e-010 7.73091 5.47488 0.417314 1.909e-009 3.64059e-009 2.07982e-010 2.90554 0.965183 0.102902 1.90901e-009 3.64059e-009 2.07984e-010 10.2786 0.731801 0.0259123 1.909e-009 3.64059e-009 2.07986e-010 2.22167 -0.733487 -0.20892 1.62482e-013 -2.70314e-013 -5.50715e-014 -0.723595 9.91259 -122.337 13.3815 -6.46595 -24.3178 0.0517145 6.47706 -0.914225 -4.46067e-009 1.15078e-008 4.11617e-010 -7.7108e-009 1.98418e-008 7.4417e-010 -4.46068e-009 1.15078e-008 4.11617e-010 -7.73091 5.47488 -0.417314 -4.46066e-009 1.15078e-008 4.1162e-010 -2.90554 0.965183 -0.102902 -4.46067e-009 1.15078e-008 4.11617e-010 -10.2786 0.731801 -0.0259123 -4.46066e-009 1.15078e-008 4.11608e-010 -2.22167 -0.733487 0.20892 -2.03217e-016 0 -3.88251e-019 11.0842 -34.2487 16.4303 -0.167343 27.9533 0.559984 1.96724 -2.2969 14.6192 2.03217e-016 0 3.88251e-019 28.3384 -9.92019 15.6949 0.0749429 32.6102 -1.02332 2.09768 -3.06664 20.1751 
-34.9749 81.2902 14.0552 13.6848 -0.609001 -49.9388 -13.4909 4.05581 -18.0378 4.86187 3.72119 -5.36857 1.4218 7.51338 18.3666 -23.035 1.00109 36.5587 -0 0 0 -0 0 0 6.14507e-014 -2.47918e-013 -1.86162e-013 67.3695 6.85325 34.1727 -28.3259 -38.0785 80.5408 -1.31141 -30.6564 -4.77886 1.8693e-009 3.61823e-009 4.60473e-010 3.21586e-009 6.19257e-009 8.46472e-010 1.86932e-009 3.61825e-009 4.60453e-010 7.73091 5.47488 0.417314 1.8693e-009 3.61823e-009 4.60468e-010 2.90554 0.965183 0.102902 1.86931e-009 3.61823e-009 4.60468e-010 10.2786 0.731801 0.0259123 1.8693e-009 3.61823e-009 4.60469e-010 2.22167 -0.733487 -0.20892 6.1331e-014 -2.47952e-013 -1.86364e-013 -1.13328 9.04706 -122.807 13.4858 -6.54681 -24.5253 0.0553367 6.70129 -0.946159 -3.91873e-009 1.16826e-008 -2.03034e-010 -6.77678e-009 2.01652e-008 -3.25766e-010 -3.91874e-009 1.16826e-008 -2.03024e-010 -7.73091 5.47488 -0.417314 -3.91872e-009 1.16826e-008 -2.03032e-010 -2.90554 0.965183 -0.102902 -3.91873e-009 1.16826e-008 -2.03034e-010 -10.2786 0.731801 -0.0259123 -3.91872e-009 1.16826e-008 -2.03041e-010 -2.22167 -0.733487 0.20892 -2.03217e-016 0 -3.88251e-019 11.2083 -34.2235 16.6013 -0.168344 28.0683 0.56276 2.0093 -2.33882 14.8019 2.03217e-016 0 3.88251e-019 28.2249 -9.58159 15.5352 0.0727233 32.5071 -1.02463 2.11756 -3.11531 20.2014 
